<svg width="40" height="40" viewBox="0 0 40 40" fill="none" xmlns="http://www.w3.org/2000/svg">
<path fill-rule="evenodd" clip-rule="evenodd" d="M20 0C20.663 0 21.2989 0.263392 21.7678 0.732233C22.2366 1.20107 22.5 1.83696 22.5 2.5V5C22.5 5.66304 22.2366 6.29893 21.7678 6.76777C21.2989 7.23661 20.663 7.5 20 7.5C19.337 7.5 18.7011 7.23661 18.2322 6.76777C17.7634 6.29893 17.5 5.66304 17.5 5V2.5C17.5 1.83696 17.7634 1.20107 18.2322 0.732233C18.7011 0.263392 19.337 0 20 0ZM30 20C30 22.6522 28.9464 25.1957 27.0711 27.0711C25.1957 28.9464 22.6522 30 20 30C17.3478 30 14.8043 28.9464 12.9289 27.0711C11.0536 25.1957 10 22.6522 10 20C10 17.3478 11.0536 14.8043 12.9289 12.9289C14.8043 11.0536 17.3478 10 20 10C22.6522 10 25.1957 11.0536 27.0711 12.9289C28.9464 14.8043 30 17.3478 30 20ZM28.84 32.375L30.6075 34.1425C31.079 34.5979 31.7105 34.8499 32.366 34.8442C33.0215 34.8385 33.6485 34.5756 34.112 34.112C34.5756 33.6485 34.8385 33.0215 34.8442 32.366C34.8499 31.7105 34.5979 31.079 34.1425 30.6075L32.375 28.84C31.9035 28.3846 31.272 28.1326 30.6165 28.1383C29.961 28.144 29.334 28.4069 28.8705 28.8705C28.4069 29.334 28.144 29.961 28.1383 30.6165C28.1326 31.272 28.3846 31.9035 28.84 32.375ZM34.14 5.8575C34.6087 6.32632 34.872 6.96209 34.872 7.625C34.872 8.28791 34.6087 8.92368 34.14 9.3925L32.375 11.16C32.1444 11.3988 31.8685 11.5892 31.5635 11.7203C31.2585 11.8513 30.9305 11.9202 30.5985 11.9231C30.2666 11.926 29.9374 11.8628 29.6301 11.7371C29.3229 11.6114 29.0437 11.4257 28.809 11.191C28.5743 10.9563 28.3886 10.6771 28.2629 10.3699C28.1372 10.0626 28.074 9.73345 28.0769 9.4015C28.0798 9.06955 28.1487 8.7415 28.2797 8.43649C28.4108 8.13148 28.6012 7.85562 28.84 7.625L30.6075 5.8575C31.0763 5.38882 31.7121 5.12553 32.375 5.12553C33.0379 5.12553 33.6737 5.38882 34.1425 5.8575H34.14ZM37.5 22.5C38.163 22.5 38.7989 22.2366 39.2678 21.7678C39.7366 21.2989 40 20.663 40 20C40 19.337 39.7366 18.7011 39.2678 18.2322C38.7989 17.7634 38.163 17.5 37.5 17.5H35C34.337 17.5 33.7011 17.7634 33.2322 18.2322C32.7634 18.7011 32.5 19.337 32.5 20C32.5 20.663 32.7634 21.2989 33.2322 21.7678C33.7011 22.2366 34.337 22.5 35 22.5H37.5ZM20 32.5C20.663 32.5 21.2989 32.7634 21.7678 33.2322C22.2366 33.7011 22.5 34.337 22.5 35V37.5C22.5 38.163 22.2366 38.7989 21.7678 39.2678C21.2989 39.7366 20.663 40 20 40C19.337 40 18.7011 39.7366 18.2322 39.2678C17.7634 38.7989 17.5 38.163 17.5 37.5V35C17.5 34.337 17.7634 33.7011 18.2322 33.2322C18.7011 32.7634 19.337 32.5 20 32.5ZM7.625 11.16C7.85711 11.3923 8.1327 11.5766 8.43603 11.7023C8.73936 11.8281 9.0645 11.8929 9.39287 11.893C9.72124 11.8931 10.0464 11.8286 10.3498 11.703C10.6533 11.5774 10.929 11.3934 11.1613 11.1613C11.3935 10.9291 11.5778 10.6536 11.7036 10.3502C11.8293 10.0469 11.8941 9.72176 11.8943 9.39338C11.8944 9.06501 11.8298 8.73983 11.7043 8.43641C11.5787 8.13299 11.3946 7.85728 11.1625 7.625L9.3925 5.8575C8.92099 5.4021 8.28949 5.15012 7.634 5.15582C6.97851 5.16151 6.35147 5.42443 5.88795 5.88795C5.42443 6.35147 5.16151 6.97851 5.15582 7.634C5.15012 8.28949 5.4021 8.92099 5.8575 9.3925L7.625 11.16ZM11.16 32.375L9.3925 34.1425C8.92099 34.5979 8.28949 34.8499 7.634 34.8442C6.97851 34.8385 6.35147 34.5756 5.88795 34.112C5.42443 33.6485 5.16151 33.0215 5.15582 32.366C5.15012 31.7105 5.4021 31.079 5.8575 30.6075L7.625 28.84C8.09651 28.3846 8.72801 28.1326 9.3835 28.1383C10.039 28.144 10.666 28.4069 11.1295 28.8705C11.5931 29.334 11.856 29.961 11.8617 30.6165C11.8674 31.272 11.6154 31.9035 11.16 32.375ZM5 22.5C5.66304 22.5 6.29893 22.2366 6.76777 21.7678C7.23661 21.2989 7.5 20.663 7.5 20C7.5 19.337 7.23661 18.7011 6.76777 18.2322C6.29893 17.7634 5.66304 17.5 5 17.5H2.5C1.83696 17.5 1.20107 17.7634 0.732233 18.2322C0.263392 18.7011 0 19.337 0 20C0 20.663 0.263392 21.2989 0.732233 21.7678C1.20107 22.2366 1.83696 22.5 2.5 22.5H5Z" fill="#FEFFFF"/>
</svg>
