<svg width="288" height="114" viewBox="0 0 288 114" fill="none" xmlns="http://www.w3.org/2000/svg">
<path d="M66.2578 112.812V56.9141C66.2578 45.0078 64.6641 35.8906 61.4766 29.5625C56.3203 19.4375 49.4297 14.375 40.8047 14.375C32.0859 14.375 25.1953 19.4375 20.1328 29.5625C16.9453 35.8906 15.3516 45.0078 15.3516 56.9141C15.3516 68.9141 16.9453 78.0312 20.1328 84.2656C24.3047 92.4219 30.5156 98.4453 38.7656 102.336L33.4922 112.812H32.7891C22.6172 109.344 14.3672 101.656 8.03906 89.75C3.53906 81.2656 1.28906 70.3203 1.28906 56.9141C1.28906 43.3203 3.53906 32.375 8.03906 24.0781C15.8672 9.64062 26.7891 2.42188 40.8047 2.42188C54.5859 2.42188 65.4141 9.47656 73.2891 23.5859C81.1641 9.47656 91.9922 2.42188 105.773 2.42188C119.789 2.42188 130.711 9.64062 138.539 24.0781C143.039 32.375 145.289 43.3203 145.289 56.9141C145.289 70.3203 143.039 81.2656 138.539 89.75C132.211 101.656 123.961 109.344 113.789 112.812H113.086L107.812 102.336C116.109 98.3984 122.32 92.375 126.445 84.2656C129.633 77.9844 131.227 68.8672 131.227 56.9141C131.227 45.0078 129.633 35.8906 126.445 29.5625C121.336 19.4375 114.445 14.375 105.773 14.375C97.1016 14.375 90.2109 19.4375 85.1016 29.5625C81.9141 35.8906 80.3203 45.0078 80.3203 56.9141V106.484L66.9609 112.812H66.2578Z" fill="black"/>
<path d="M168.492 112.812V56.9141C168.492 43.2734 170.742 32.3281 175.242 24.0781C183.117 9.64062 194.039 2.42188 208.008 2.42188C222.023 2.42188 232.945 9.64062 240.773 24.0781C245.273 32.375 247.523 43.3203 247.523 56.9141C247.523 70.3203 245.273 81.2656 240.773 89.75C234.445 101.656 226.195 109.344 216.023 112.812H215.32L210.047 102.336C218.391 98.3984 224.602 92.375 228.68 84.2656C231.305 79.0625 232.852 71.9375 233.32 62.8906H182.555V106.484L169.195 112.812H168.492ZM182.695 50.9375H233.32C232.852 41.9375 231.305 34.8125 228.68 29.5625C223.617 19.4375 216.727 14.375 208.008 14.375C199.336 14.375 192.445 19.4375 187.336 29.5625C184.711 34.8125 183.164 41.9375 182.695 50.9375Z" fill="black"/>
<path d="M272.133 112.812V7.34375L285.492 1.01562H286.195V106.484L272.836 112.812H272.133Z" fill="black"/>
<path fill-rule="evenodd" clip-rule="evenodd" d="M65.2578 113.812V56.9141C65.2578 45.0731 63.6688 36.1396 60.585 30.0155C55.5361 20.1016 48.9315 15.375 40.8047 15.375C32.5819 15.375 25.98 20.1041 21.0272 30.0097L21.0259 30.0124C17.9411 36.1366 16.3516 45.0711 16.3516 56.9141C16.3516 68.8538 17.942 77.7838 21.0231 83.8102C25.0948 91.7706 31.1431 97.6356 39.1922 101.431L40.1202 101.869L34.1084 113.812H32.6232L32.4663 113.759C21.9966 110.189 13.5717 102.29 7.15604 90.2193C2.55523 81.5449 0.289062 70.4226 0.289062 56.9141C0.289062 43.2224 2.55336 32.0949 7.16003 23.6014C15.1268 8.90814 26.3522 1.42188 40.8047 1.42188C54.5085 1.42188 65.3459 8.22336 73.2891 21.5827C81.2322 8.22336 92.0696 1.42188 105.773 1.42188C120.226 1.42188 131.451 8.90814 139.418 23.6014C144.025 32.0949 146.289 43.2224 146.289 56.9141C146.289 70.4226 144.023 81.5441 139.423 90.2186C133.007 102.29 124.581 110.189 114.112 113.759L113.955 113.812H112.47L106.459 101.871L107.384 101.433C115.483 97.589 121.53 91.723 125.554 83.8131C128.637 77.7378 130.227 68.8054 130.227 56.9141C130.227 45.0711 128.637 36.1366 125.552 30.0124C120.551 20.1028 113.948 15.375 105.773 15.375C97.5986 15.375 90.9952 20.103 85.9943 30.013C82.9098 36.1372 81.3203 45.0715 81.3203 56.9141V107.117L67.1858 113.812H65.2578ZM85.1016 29.5625C90.2109 19.4375 97.1016 14.375 105.773 14.375C114.445 14.375 121.336 19.4375 126.445 29.5625C129.633 35.8906 131.227 45.0078 131.227 56.9141C131.227 68.8672 129.633 77.9844 126.445 84.2656C122.471 92.0795 116.559 97.9567 108.711 101.897C108.414 102.046 108.115 102.192 107.812 102.336L113.086 112.812H113.789C123.961 109.344 132.211 101.656 138.539 89.75C143.039 81.2656 145.289 70.3203 145.289 56.9141C145.289 43.3203 143.039 32.375 138.539 24.0781C130.711 9.64062 119.789 2.42188 105.773 2.42188C92.3258 2.42188 81.69 9.13916 73.8661 22.5737C73.6721 22.907 73.4797 23.2444 73.2891 23.5859C73.0984 23.2444 72.9061 22.907 72.712 22.5737C64.8881 9.13916 54.2523 2.42188 40.8047 2.42188C26.7891 2.42188 15.8672 9.64062 8.03906 24.0781C3.53906 32.375 1.28906 43.3203 1.28906 56.9141C1.28906 70.3203 3.53906 81.2656 8.03906 89.75C14.3672 101.656 22.6172 109.344 32.7891 112.812H33.4922L38.7656 102.336C38.463 102.193 38.1631 102.048 37.8659 101.899C30.0627 98.0005 24.1516 92.1227 20.1328 84.2656C16.9453 78.0312 15.3516 68.9141 15.3516 56.9141C15.3516 45.0078 16.9453 35.8906 20.1328 29.5625C25.1953 19.4375 32.0859 14.375 40.8047 14.375C49.4297 14.375 56.3203 19.4375 61.4766 29.5625C64.6641 35.8906 66.2578 45.0078 66.2578 56.9141V112.812H66.9609L80.3203 106.484V56.9141C80.3203 45.0078 81.9141 35.8906 85.1016 29.5625ZM167.492 113.812V56.9141C167.492 43.1766 169.756 32.0476 174.364 23.5993C182.377 8.90892 193.601 1.42188 208.008 1.42188C222.46 1.42188 233.686 8.90818 241.653 23.6015C246.259 32.0949 248.523 43.2224 248.523 56.9141C248.523 70.4226 246.258 81.5441 241.657 90.2186C235.241 102.29 226.816 110.189 216.346 113.759L216.189 113.812H214.704L208.692 101.869L209.62 101.432C217.765 97.5877 223.81 91.7226 227.786 83.8163L227.787 83.8152C230.224 78.9839 231.734 72.3621 232.262 63.8906H183.555V107.117L169.42 113.812H167.492ZM182.555 62.8906H233.32C233.303 63.2266 233.284 63.5599 233.264 63.8906C232.735 72.4641 231.207 79.2557 228.68 84.2656C224.75 92.0808 218.838 97.9586 210.947 101.899C210.649 102.048 210.35 102.193 210.047 102.336L215.32 112.812H216.023C226.195 109.344 234.445 101.656 240.773 89.75C245.273 81.2656 247.523 70.3203 247.523 56.9141C247.523 43.3203 245.273 32.375 240.773 24.0781C232.945 9.64062 222.023 2.42188 208.008 2.42188C194.039 2.42188 183.117 9.64062 175.242 24.0781C170.742 32.3281 168.492 43.2734 168.492 56.9141V112.812H169.195L182.555 106.484V62.8906ZM233.32 50.9375C233.303 50.6016 233.284 50.2682 233.263 49.9375C232.735 41.4082 231.207 34.6165 228.68 29.5625C223.617 19.4375 216.727 14.375 208.008 14.375C199.336 14.375 192.445 19.4375 187.336 29.5625C184.809 34.6165 183.281 41.4082 182.752 49.9375C182.732 50.2682 182.713 50.6016 182.695 50.9375H233.32ZM183.754 49.9375H232.261C231.734 41.5113 230.224 34.8874 227.785 30.0097C222.832 20.1041 216.231 15.375 208.008 15.375C199.834 15.375 193.231 20.1022 188.23 30.0106C185.791 34.8881 184.282 41.5118 183.754 49.9375ZM271.133 113.812V6.71092L285.267 0.015625H287.195V107.117L273.061 113.812H271.133ZM272.836 112.812L286.195 106.484V1.01562H285.492L272.133 7.34375V112.812H272.836Z" fill="black"/>
</svg>
