<svg width="50" height="50" viewBox="0 0 50 50" fill="none" xmlns="http://www.w3.org/2000/svg">
<path d="M5 35V45H15V50H0V35H5ZM50 35V50H35V45H45V35H50ZM13.75 12.5C13.75 15.4837 14.9353 18.3452 17.045 20.455C19.1548 22.5647 22.0163 23.75 25 23.75C27.9837 23.75 30.8452 22.5647 32.9549 20.455C35.0647 18.3452 36.25 15.4837 36.25 12.5H41.25C41.2506 15.4735 40.4353 18.3901 38.8929 20.9323C37.3505 23.4744 35.1401 25.5447 32.5025 26.9175L32.5 42.5H17.5V26.92C14.8616 25.5473 12.6504 23.4768 11.1076 20.9342C9.56468 18.3915 8.74921 15.4742 8.75 12.5H13.75ZM25 7.5C26.6576 7.5 28.2473 8.15848 29.4194 9.33058C30.5915 10.5027 31.25 12.0924 31.25 13.75C31.25 15.4076 30.5915 16.9973 29.4194 18.1694C28.2473 19.3415 26.6576 20 25 20C23.3424 20 21.7527 19.3415 20.5806 18.1694C19.4085 16.9973 18.75 15.4076 18.75 13.75C18.75 12.0924 19.4085 10.5027 20.5806 9.33058C21.7527 8.15848 23.3424 7.5 25 7.5ZM15 0V5L5 4.9975V15H0V0H15ZM50 0V15H45V5H35V0H50Z" fill="#6423B6"/>
</svg>
