<svg width="64" height="48" viewBox="0 0 64 48" fill="none" xmlns="http://www.w3.org/2000/svg">
<path fill-rule="evenodd" clip-rule="evenodd" d="M60 40V16C60 14.9391 59.5786 13.9217 58.8284 13.1716C58.0783 12.4214 57.0609 12 56 12H51.312C48.1311 11.9983 45.0809 10.7336 42.832 8.484L39.512 5.172C38.764 4.42376 37.75 4.00234 36.692 4H27.312C26.2512 4.00023 25.234 4.4218 24.484 5.172L21.172 8.484C18.9221 10.7346 15.8703 11.9993 12.688 12H8C6.93913 12 5.92172 12.4214 5.17157 13.1716C4.42143 13.9217 4 14.9391 4 16V40C4 41.0609 4.42143 42.0783 5.17157 42.8284C5.92172 43.5786 6.93913 44 8 44H56C57.0609 44 58.0783 43.5786 58.8284 42.8284C59.5786 42.0783 60 41.0609 60 40ZM8 8C5.87827 8 3.84344 8.84285 2.34315 10.3431C0.842855 11.8434 0 13.8783 0 16L0 40C0 42.1217 0.842855 44.1566 2.34315 45.6569C3.84344 47.1571 5.87827 48 8 48H56C58.1217 48 60.1566 47.1571 61.6569 45.6569C63.1571 44.1566 64 42.1217 64 40V16C64 13.8783 63.1571 11.8434 61.6569 10.3431C60.1566 8.84285 58.1217 8 56 8H51.312C49.1904 7.99955 47.1559 7.15639 45.656 5.656L42.344 2.344C40.8441 0.843605 38.8096 0.000453099 36.688 0H27.312C25.1904 0.000453099 23.1559 0.843605 21.656 2.344L18.344 5.656C16.8441 7.15639 14.8096 7.99955 12.688 8H8Z" fill="#6423B6"/>
<path fill-rule="evenodd" clip-rule="evenodd" d="M32 36C34.6522 36 37.1957 34.9464 39.0711 33.0711C40.9464 31.1957 42 28.6522 42 26C42 23.3478 40.9464 20.8043 39.0711 18.9289C37.1957 17.0536 34.6522 16 32 16C29.3478 16 26.8043 17.0536 24.9289 18.9289C23.0536 20.8043 22 23.3478 22 26C22 28.6522 23.0536 31.1957 24.9289 33.0711C26.8043 34.9464 29.3478 36 32 36ZM32 40C35.713 40 39.274 38.525 41.8995 35.8995C44.525 33.274 46 29.713 46 26C46 22.287 44.525 18.726 41.8995 16.1005C39.274 13.475 35.713 12 32 12C28.287 12 24.726 13.475 22.1005 16.1005C19.475 18.726 18 22.287 18 26C18 29.713 19.475 33.274 22.1005 35.8995C24.726 38.525 28.287 40 32 40Z" fill="#6423B6"/>
<path d="M12 18C12 18.5304 11.7893 19.0391 11.4142 19.4142C11.0391 19.7893 10.5304 20 10 20C9.46957 20 8.96086 19.7893 8.58579 19.4142C8.21071 19.0391 8 18.5304 8 18C8 17.4696 8.21071 16.9609 8.58579 16.5858C8.96086 16.2107 9.46957 16 10 16C10.5304 16 11.0391 16.2107 11.4142 16.5858C11.7893 16.9609 12 17.4696 12 18Z" fill="#6423B6"/>
</svg>
